<?xml version="1.0" encoding="UTF-8"?>
<!DOCTYPE svg PUBLIC "-//W3C//DTD SVG 1.1//EN" "http://www.w3.org/Graphics/SVG/1.1/DTD/svg11.dtd">
<svg xmlns="http://www.w3.org/2000/svg" version="1.1" width="130px" height="129px" style="shape-rendering:geometricPrecision; text-rendering:geometricPrecision; image-rendering:optimizeQuality; fill-rule:evenodd; clip-rule:evenodd" xmlns:xlink="http://www.w3.org/1999/xlink">
<g><path style="opacity:1" fill="#fefefe" d="M -0.5,-0.5 C 42.8333,-0.5 86.1667,-0.5 129.5,-0.5C 129.5,42.5 129.5,85.5 129.5,128.5C 86.1667,128.5 42.8333,128.5 -0.5,128.5C -0.5,85.5 -0.5,42.5 -0.5,-0.5 Z"/></g>
<g><path style="opacity:1" fill="#0562df" d="M 59.5,19.5 C 73.2555,18.5295 85.2555,22.5295 95.5,31.5C 103.638,39.4443 108.305,49.111 109.5,60.5C 109.101,90.8992 93.7677,107.566 63.5,110.5C 49.5873,109.377 37.9206,103.71 28.5,93.5C 23.4618,86.1051 20.1285,78.1051 18.5,69.5C 17.8529,50.2923 25.5196,35.4589 41.5,25C 47.1798,22.0507 53.1798,20.2173 59.5,19.5 Z"/></g>
<g><path style="opacity:1" fill="#d2e3f9" d="M 95.5,31.5 C 99.2923,31.9795 102.459,33.6462 105,36.5C 108.227,42.1955 110.727,48.1955 112.5,54.5C 114.607,63.7479 114.94,73.0813 113.5,82.5C 111.163,86.5152 109.829,90.8485 109.5,95.5C 108.448,95.3505 107.448,95.5172 106.5,96C 92.4108,113.306 74.4108,119.14 52.5,113.5C 43.7059,110.601 36.2059,105.601 30,98.5C 28.9914,96.9751 28.4914,95.3084 28.5,93.5C 37.9206,103.71 49.5873,109.377 63.5,110.5C 87.7427,112.263 103.243,101.263 110,77.5C 110.818,71.6513 110.652,65.9846 109.5,60.5C 108.305,49.111 103.638,39.4443 95.5,31.5 Z"/></g>
<g><path style="opacity:1" fill="#f5f8fd" d="M 83.5,46.5 C 88.0001,46.1638 89.8334,48.1638 89,52.5C 79.5,62.6667 70,72.8333 60.5,83C 59.1667,83.6667 57.8333,83.6667 56.5,83C 51.3333,77.8333 46.1667,72.6667 41,67.5C 40.8355,63.0233 43.0022,61.5233 47.5,63C 51.0152,66.6824 54.6819,70.1824 58.5,73.5C 67.1947,64.8065 75.528,55.8065 83.5,46.5 Z"/></g>
<g><path style="opacity:1" fill="#b6d1f5" d="M 109.5,60.5 C 110.652,65.9846 110.818,71.6513 110,77.5C 103.243,101.263 87.7427,112.263 63.5,110.5C 93.7677,107.566 109.101,90.8992 109.5,60.5 Z"/></g>
<g><path style="opacity:1" fill="#f2f6fd" d="M 59.5,19.5 C 96.7397,16.9179 117.406,34.0846 121.5,71C 117.428,101.573 100.094,118.407 69.5,121.5C 48.6021,120.31 33.1021,110.643 23,92.5C 21.6857,86.7064 19.8523,81.2064 17.5,76C 18.4231,73.9592 18.7564,71.7925 18.5,69.5C 20.1285,78.1051 23.4618,86.1051 28.5,93.5C 28.4914,95.3084 28.9914,96.9751 30,98.5C 36.2059,105.601 43.7059,110.601 52.5,113.5C 55.4216,115.531 58.7549,116.698 62.5,117C 67.1667,117.667 71.8333,117.667 76.5,117C 106.216,110.433 119.382,91.9329 116,61.5C 115.861,58.5547 114.694,56.2214 112.5,54.5C 110.727,48.1955 108.227,42.1955 105,36.5C 102.459,33.6462 99.2923,31.9795 95.5,31.5C 85.2555,22.5295 73.2555,18.5295 59.5,19.5 Z"/></g>
<g><path style="opacity:1" fill="#e2ecfb" d="M 112.5,54.5 C 114.694,56.2214 115.861,58.5547 116,61.5C 119.382,91.9329 106.216,110.433 76.5,117C 71.8333,117.667 67.1667,117.667 62.5,117C 58.7549,116.698 55.4216,115.531 52.5,113.5C 74.4108,119.14 92.4108,113.306 106.5,96C 107.448,95.5172 108.448,95.3505 109.5,95.5C 109.829,90.8485 111.163,86.5152 113.5,82.5C 114.94,73.0813 114.607,63.7479 112.5,54.5 Z"/></g>
</svg>
