<svg width="25" height="25" viewBox="0 0 25 25" fill="none" xmlns="http://www.w3.org/2000/svg">
<g id="up-arrow" clip-path="url(#clip0_817_534)">
<g id="Group">
<path id="Vector" fill-rule="evenodd" clip-rule="evenodd" d="M11.7636 8.63863C11.959 8.44335 12.2239 8.33365 12.5001 8.33365C12.7763 8.33365 13.0412 8.44335 13.2365 8.63863L19.1293 14.5313C19.2287 14.6274 19.3081 14.7424 19.3627 14.8695C19.4173 14.9965 19.446 15.1332 19.4472 15.2715C19.4484 15.4099 19.4221 15.547 19.3697 15.675C19.3173 15.8031 19.24 15.9194 19.1422 16.0172C19.0444 16.115 18.9281 16.1923 18.8 16.2447C18.672 16.2971 18.5349 16.3234 18.3965 16.3222C18.2582 16.321 18.1215 16.2923 17.9945 16.2377C17.8674 16.1831 17.7524 16.1037 17.6563 16.0043L12.5001 10.848L7.34384 16.0043C7.14738 16.194 6.88425 16.299 6.61113 16.2966C6.33801 16.2943 6.07675 16.1847 5.88361 15.9916C5.69048 15.7984 5.58093 15.5372 5.57856 15.264C5.57618 14.9909 5.68118 14.7278 5.87092 14.5313L11.7636 8.63863Z" fill="#0061DF"/>
</g>
</g>
<defs>
<clipPath id="clip0_817_534">
<rect width="25" height="25" fill="white"/>
</clipPath>
</defs>
</svg>
