<?xml version="1.0" encoding="UTF-8" standalone="no" ?>
<!DOCTYPE svg PUBLIC "-//W3C//DTD SVG 1.1//EN" "http://www.w3.org/Graphics/SVG/1.1/DTD/svg11.dtd">
<svg xmlns="http://www.w3.org/2000/svg" xmlns:xlink="http://www.w3.org/1999/xlink" version="1.1" width="1080" height="1080" viewBox="0 0 1080 1080" xml:space="preserve">
<desc>Created with Fabric.js 5.2.4</desc>
<defs>
</defs>
<g transform="matrix(1 0 0 1 540 540)" id="880594fc-2953-41b1-823e-75bf275998cd"  >
<rect style="stroke: none; stroke-width: 1; stroke-dasharray: none; stroke-linecap: butt; stroke-dashoffset: 0; stroke-linejoin: miter; stroke-miterlimit: 4; fill: rgb(255,255,255); fill-rule: nonzero; opacity: 1; visibility: hidden;" vector-effect="non-scaling-stroke"  x="-540" y="-540" rx="0" ry="0" width="1080" height="1080" />
</g>
<g transform="matrix(1 0 0 1 540 540)" id="fb9a7924-59eb-4bb4-b43c-7f72ea8bcba7"  >
</g>
<g transform="matrix(0.67 0 0 0.67 540 540)"  >
<path style="stroke: rgb(242,242,242); stroke-width: 5; stroke-dasharray: none; stroke-linecap: butt; stroke-dashoffset: 0; stroke-linejoin: miter; stroke-miterlimit: 4; fill: none; fill-rule: nonzero; opacity: 1;"  transform=" translate(-803.18, -2667.5)" d="M 1225 2 C 1357.5 132 1345.62 119.5 1410 191 C 1845.53 674.696 236.492 751.022 141.942 1395 C 38.7809 2097.62 1696.41 2046.53 1411.44 2697 C 1182.22 3220.22 210.713 3387.54 21.4416 3926.5 C -212.266 4592 1885.31 4223.09 1570.94 4854.5 C 1436.61 5124.3 965.442 5333 965.442 5333" stroke-linecap="round" />
</g>
</svg>