<?xml version="1.0" standalone="no"?>
<!DOCTYPE svg PUBLIC "-//W3C//DTD SVG 20010904//EN"
 "http://www.w3.org/TR/2001/REC-SVG-20010904/DTD/svg10.dtd">
<svg version="1.0" xmlns="http://www.w3.org/2000/svg"
 width="932.000000pt" height="932.000000pt" viewBox="0 0 932.000000 932.000000"
 preserveAspectRatio="xMidYMid meet">
<metadata>
Created by potrace 1.14, written by Peter Selinger 2001-2017
</metadata>
<g transform="translate(0.000000,932.000000) scale(0.100000,-0.100000)"
fill="#000000" stroke="none">
<path d="M1360 9313 c-360 -58 -657 -203 -897 -441 -43 -42 -94 -97 -113 -122
-19 -25 -37 -47 -40 -50 -3 -3 -29 -40 -57 -82 -109 -163 -205 -401 -234 -578
-12 -72 -14 -593 -14 -3325 0 -1782 2 -3280 4 -3330 6 -116 13 -153 64 -315
18 -59 102 -242 144 -315 196 -336 569 -614 963 -716 76 -19 82 -20 185 -27
132 -9 6447 -9 6590 0 238 15 508 123 745 297 70 52 227 200 279 265 54 67
147 219 196 322 88 183 129 337 136 509 2 61 4 1563 4 3340 0 3080 -1 3234
-18 3320 -33 164 -126 397 -203 510 -13 20 -24 38 -24 40 0 16 -138 184 -206
251 -182 181 -378 299 -629 383 -118 39 -162 49 -254 58 -58 5 -6587 12 -6621
6z"/>
</g>
</svg>
